<svg xmlns="http://www.w3.org/2000/svg" width="1049.293" height="835.052" viewBox="0 0 1049.293 835.052">
  <g id="Typing-bro" transform="translate(-27.111 -132.438)">
    <g id="freepik--Plant--inject-1--inject-86" transform="translate(27.111 140.137)">
      <circle id="Ellipse_3" data-name="Ellipse 3" cx="81.236" cy="81.236" r="81.236" transform="translate(56.768 74.602)" fill="#fff" stroke="#2e353a" stroke-linecap="round" stroke-linejoin="round" stroke-width="1"/>
      <circle id="Ellipse_4" data-name="Ellipse 4" cx="81.236" cy="81.236" r="81.236" transform="translate(50.721 66.532)" fill="#fff" stroke="#2e353a" stroke-linecap="round" stroke-linejoin="round" stroke-width="1"/>
      <circle id="Ellipse_5" data-name="Ellipse 5" cx="73.167" cy="73.167" r="73.167" transform="translate(58.791 74.602)" fill="#2e353a" stroke="#2e353a" stroke-linecap="round" stroke-linejoin="round" stroke-width="1"/>
      <path id="Path_188" data-name="Path 188" d="M150.481,170.455s-8.07-20.186-22.185-34.3-71.661-23.22-71.661-23.22A210.981,210.981,0,0,1,81.879,142.2c13.1,18.162,56.463,59.545,56.463,59.545s-21.174-18.162-40.371-20.186-67.615,8.069-70.579,8.069S45.554,197.7,60.7,204.756s73.661,13.128,73.661,13.128-25.22,7.058-42.347,13.128-33.36,50.44-33.36,50.44,22.209-20.186,41.383-25.22,46.417-14.116,46.417-14.116-17.151,19.174-21.174,32.3-1.012,43.383-1.012,43.383,9.081-28.232,20.186-39.359,23.173-30.161,23.173-30.161a277.612,277.612,0,0,1,15.151,28.232c8.07,17.151,13.1,42.347,13.1,42.347S209.015,290.627,208,276.511s-16.139-39.36-16.139-39.36,10.093-7.058,25.22-1.012,41.383,31.29,41.383,31.29-6.07-33.313-16.163-46.417-53.475-17.174-53.475-17.174,24.232-14.116,39.36-17.151,35.289,4.047,35.289,4.047-23.2-32.3-41.359-34.325-45.406,26.161-45.406,26.161l8.093-40.371c2-10.093-2.023-35.289-2.023-35.289s-11.1,6.046-24.232,25.22A50.252,50.252,0,0,0,150.481,170.455Z" transform="translate(-27.111 -77.69)" fill="#fff"/>
      <path id="Path_189" data-name="Path 189" d="M150.481,170.455s-8.07-20.186-22.185-34.3-71.661-23.22-71.661-23.22A210.981,210.981,0,0,1,81.879,142.2c13.1,18.162,56.463,59.545,56.463,59.545s-21.174-18.162-40.371-20.186-67.615,8.069-70.579,8.069S45.554,197.7,60.7,204.756s73.661,13.128,73.661,13.128-25.22,7.058-42.347,13.128-33.36,50.44-33.36,50.44,22.209-20.186,41.383-25.22,46.417-14.116,46.417-14.116-17.151,19.174-21.174,32.3-1.012,43.383-1.012,43.383,9.081-28.232,20.186-39.359,23.173-30.161,23.173-30.161a277.612,277.612,0,0,1,15.151,28.232c8.07,17.151,13.1,42.347,13.1,42.347S209.015,290.627,208,276.511s-16.139-39.36-16.139-39.36,10.093-7.058,25.22-1.012,41.383,31.29,41.383,31.29-6.07-33.313-16.163-46.417-53.475-17.174-53.475-17.174,24.232-14.116,39.36-17.151,35.289,4.047,35.289,4.047-23.2-32.3-41.359-34.325-45.406,26.161-45.406,26.161l8.093-40.371c2-10.093-2.023-35.289-2.023-35.289s-11.1,6.046-24.232,25.22A50.252,50.252,0,0,0,150.481,170.455Z" transform="translate(-27.111 -77.69)" opacity="0.5"/>
      <path id="Path_190" data-name="Path 190" d="M88,125.824c.706-2.894,1.482-5.787,2.353-8.634" transform="translate(55.25 -63.785)" fill="none" stroke="#2e353a" stroke-linecap="round" stroke-linejoin="round" stroke-width="0.5"/>
      <path id="Path_191" data-name="Path 191" d="M59.35,120.86c9.411,6.893,21.174,16.468,27.338,24.679C97.792,160.667,120,192.968,120,192.968a300.077,300.077,0,0,1,5.129-64.721" transform="translate(16.498 -58.821)" fill="none" stroke="#2e353a" stroke-linecap="round" stroke-linejoin="round" stroke-width="0.5"/>
      <path id="Path_192" data-name="Path 192" d="M53.39,116.76s2.941,1.882,7.34,4.917" transform="translate(8.436 -64.367)" fill="none" stroke="#2e353a" stroke-linecap="round" stroke-linejoin="round" stroke-width="0.5"/>
      <path id="Path_193" data-name="Path 193" d="M85.13,175.583s38.348-38.348,54.487-41.383,30.278,9.081,30.278,9.081" transform="translate(51.368 -41.436)" fill="none" stroke="#2e353a" stroke-linecap="round" stroke-linejoin="round" stroke-width="0.5"/>
      <path id="Path_194" data-name="Path 194" d="M61.857,165.14c-9.411,5.929-10.187,9.411-10.187,9.411" transform="translate(6.109 1.073)" fill="none" stroke="#2e353a" stroke-linecap="round" stroke-linejoin="round" stroke-width="0.5"/>
      <path id="Path_195" data-name="Path 195" d="M204.377,183.928s-6.046-15.151-27.243-22.209-54.463-8.07-54.463-8.07-46.7,15.292-63.78,23.268" transform="translate(15.875 -14.468)" fill="none" stroke="#2e353a" stroke-linecap="round" stroke-linejoin="round" stroke-width="0.5"/>
      <path id="Path_196" data-name="Path 196" d="M77.32,151.2c11.293,3.294,20.4,5.764,20.4,5.764" transform="translate(40.804 -17.782)" fill="none" stroke="#2e353a" stroke-linecap="round" stroke-linejoin="round" stroke-width="0.5"/>
      <path id="Path_197" data-name="Path 197" d="M47.11,143.58c10.963.659,25.079,2.164,32.937,5.529,6.4,2.753,19.009,6.729,30.914,10.281" transform="translate(-0.059 -28.089)" fill="none" stroke="#2e353a" stroke-linecap="round" stroke-linejoin="round" stroke-width="0.5"/>
      <path id="Path_198" data-name="Path 198" d="M40.52,143.36s3.694,0,9.128.212" transform="translate(-8.973 -28.387)" fill="none" stroke="#2e353a" stroke-linecap="round" stroke-linejoin="round" stroke-width="0.5"/>
      <path id="Path_199" data-name="Path 199" d="M103.7,156.22S75.47,198.567,73.423,208.707A102.765,102.765,0,0,0,71.4,226.87" transform="translate(32.797 -10.992)" fill="none" stroke="#2e353a" stroke-linecap="round" stroke-linejoin="round" stroke-width="0.5"/>
      <path id="Path_200" data-name="Path 200" d="M90.47,161.89c5.435,7.058,11.951,16.468,14.68,24a165.578,165.578,0,0,1,7.058,28.232" transform="translate(58.591 -3.323)" fill="none" stroke="#2e353a" stroke-linecap="round" stroke-linejoin="round" stroke-width="0.5"/>
      <path id="Path_201" data-name="Path 201" d="M86.84,157.51s2.353,2.494,5.388,6.329" transform="translate(53.681 -9.247)" fill="none" stroke="#2e353a" stroke-linecap="round" stroke-linejoin="round" stroke-width="0.5"/>
      <path id="Path_202" data-name="Path 202" d="M120.144,195.959s-5.2-21.174-1.976-40.818,44.7-60.651,44.7-60.651a212.2,212.2,0,0,0-3.411,38.489c0,22.4-11.175,81.307-11.175,81.307s6.611-27.1,21.009-39.995,59.639-32.937,62.086-34.654-10.046,17.151-18.209,31.737-52.228,53.711-52.228,53.711S185.547,216.1,203,210.969s56.463,21.55,56.463,21.55-29.808-3.435-48.323,3.647-45.947,15.6-45.947,15.6,25.126,5.576,36.042,13.88S227.4,300.369,227.4,300.369s-23.856-17.668-39.36-20.209-36.513-11.034-36.513-11.034a283.822,283.822,0,0,0,4.188,31.761c3.458,18.656,14.116,42.089,14.116,42.089s-27.126-15.292-34.56-27.361-9.834-41.383-9.834-41.383-12.328.141-21.174,13.881S88.9,337.658,88.9,337.658,74.408,307.074,74.95,290.605s33.431-45.123,33.431-45.123-27.9,2.658-41.971,9.011S40.06,278.372,40.06,278.372s0-39.759,13.6-51.993,52.2-5.176,52.2-5.176L75.749,193.136c-7.528-7.058-18.962-29.878-18.962-29.878s12.563-1.553,34.4,6.376a50.135,50.135,0,0,1,28.961,26.326Z" transform="translate(-9.595 -94.49)" fill="#fff"/>
      <path id="Path_203" data-name="Path 203" d="M63.6,135.2c-2.353-1.953-4.564-3.835-6.917-5.67" transform="translate(12.886 -47.094)" fill="none" stroke="#2e353a" stroke-linecap="round" stroke-linejoin="round" stroke-width="0.5"/>
      <path id="Path_204" data-name="Path 204" d="M111.146,115.23c-3.647,11.1-7.717,25.714-7.811,35.972-.188,18.821.612,57.945.612,57.945A299.067,299.067,0,0,0,62,159.6" transform="translate(20.082 -66.436)" fill="none" stroke="#2e353a" stroke-linecap="round" stroke-linejoin="round" stroke-width="0.5"/>
      <path id="Path_205" data-name="Path 205" d="M87.135,108.42s-1.317,3.247-3.105,8.258" transform="translate(49.88 -75.648)" fill="none" stroke="#2e353a" stroke-linecap="round" stroke-linejoin="round" stroke-width="0.5"/>
      <path id="Path_206" data-name="Path 206" d="M130.243,157.736s-53.522-8.775-68.391-1.812S42.56,180.909,42.56,180.909" transform="translate(-6.213 -15.025)" fill="none" stroke="#2e353a" stroke-linecap="round" stroke-linejoin="round" stroke-width="0.5"/>
      <path id="Path_207" data-name="Path 207" d="M111.45,149.291c11.034-.612,13.669,1.623,13.669,1.623" transform="translate(86.97 -20.508)" fill="none" stroke="#2e353a" stroke-linecap="round" stroke-linejoin="round" stroke-width="0.5"/>
      <path id="Path_208" data-name="Path 208" d="M59.984,240.173s-3.905-15.833,9.175-33.925,39.571-38.324,39.571-38.324,46.841-14.845,65.356-18.3" transform="translate(16.617 -19.919)" fill="none" stroke="#2e353a" stroke-linecap="round" stroke-linejoin="round" stroke-width="0.5"/>
      <path id="Path_209" data-name="Path 209" d="M93.575,150.35C86.329,159.6,80.4,166.936,80.4,166.936" transform="translate(44.97 -18.932)" fill="none" stroke="#2e353a" stroke-linecap="round" stroke-linejoin="round" stroke-width="0.5"/>
      <path id="Path_210" data-name="Path 210" d="M130.613,126.54c-8.517,7.058-19.1,16.468-23.526,23.691-3.6,5.976-11.528,16.468-19.127,26.373" transform="translate(55.196 -51.138)" fill="none" stroke="#2e353a" stroke-linecap="round" stroke-linejoin="round" stroke-width="0.5"/>
      <path id="Path_211" data-name="Path 211" d="M115.5,122.51s-2.988,2.164-7.293,5.505" transform="translate(82.587 -56.589)" fill="none" stroke="#2e353a" stroke-linecap="round" stroke-linejoin="round" stroke-width="0.5"/>
      <path id="Path_212" data-name="Path 212" d="M82.58,159s47.688,17.927,55.193,24.961a102.149,102.149,0,0,1,12.234,13.575" transform="translate(47.919 -7.232)" fill="none" stroke="#2e353a" stroke-linecap="round" stroke-linejoin="round" stroke-width="0.5"/>
      <path id="Path_213" data-name="Path 213" d="M81.625,166.7c-.329,8.893-.165,20.3,2.07,28.067a164.023,164.023,0,0,0,10.752,27.079" transform="translate(46.451 3.183)" fill="none" stroke="#2e353a" stroke-linecap="round" stroke-linejoin="round" stroke-width="0.5"/>
      <path id="Path_214" data-name="Path 214" d="M82.319,161s-.376,3.341-.659,8.281" transform="translate(46.675 -4.526)" fill="none" stroke="#2e353a" stroke-linecap="round" stroke-linejoin="round" stroke-width="0.5"/>
    </g>
    <g id="freepik--Device--inject-1--inject-86" transform="translate(212.23 132.938)">
      <path id="Path_215" data-name="Path 215" d="M155.263,183.43H688.534a25.1,25.1,0,0,1,25.1,25.1V554.369a27.455,27.455,0,0,1-27.455,27.455H157.615a27.455,27.455,0,0,1-27.455-27.455V208.533a25.1,25.1,0,0,1,25.1-25.1Z" transform="translate(-72.843 33.012)" fill="#fff" stroke="#2e353a" stroke-linecap="round" stroke-linejoin="round" stroke-width="1"/>
      <rect id="Rectangle_60" data-name="Rectangle 60" width="32.843" height="21.574" transform="translate(244.752 255.66)" fill="#2e353a"/>
      <rect id="Rectangle_61" data-name="Rectangle 61" width="30.49" height="30.255" transform="translate(140.695 388.749)" fill="#2e353a"/>
      <rect id="Rectangle_62" data-name="Rectangle 62" width="30.725" height="30.255" transform="translate(275.171 282.41)" fill="#2e353a"/>
      <rect id="Rectangle_63" data-name="Rectangle 63" width="32.843" height="21.574" transform="translate(206.71 255.66)" fill="#2e353a"/>
      <rect id="Rectangle_64" data-name="Rectangle 64" width="30.725" height="30.255" transform="translate(311.072 282.41)" fill="#2e353a"/>
      <rect id="Rectangle_65" data-name="Rectangle 65" width="32.843" height="21.574" transform="translate(282.77 255.66)" fill="#2e353a"/>
      <rect id="Rectangle_66" data-name="Rectangle 66" width="57.781" height="30.255" transform="translate(94.983 353.295)" fill="#2e353a"/>
      <rect id="Rectangle_67" data-name="Rectangle 67" width="30.725" height="30.255" transform="translate(203.345 282.41)" fill="#2e353a"/>
      <rect id="Rectangle_68" data-name="Rectangle 68" width="40.536" height="30.255" transform="translate(94.983 388.749)" fill="#2e353a"/>
      <rect id="Rectangle_69" data-name="Rectangle 69" width="32.843" height="21.574" transform="translate(320.812 255.66)" fill="#2e353a"/>
      <rect id="Rectangle_70" data-name="Rectangle 70" width="30.725" height="30.255" transform="translate(131.519 282.41)" fill="#2e353a"/>
      <rect id="Rectangle_71" data-name="Rectangle 71" width="32.843" height="21.574" transform="translate(130.649 255.66)" fill="#2e353a"/>
      <rect id="Rectangle_72" data-name="Rectangle 72" width="32.843" height="21.574" transform="translate(168.691 255.66)" fill="#2e353a"/>
      <rect id="Rectangle_73" data-name="Rectangle 73" width="30.725" height="30.255" transform="translate(167.421 282.41)" fill="#2e353a"/>
      <rect id="Rectangle_74" data-name="Rectangle 74" width="30.725" height="30.255" transform="translate(239.246 282.41)" fill="#2e353a"/>
      <rect id="Rectangle_75" data-name="Rectangle 75" width="32.843" height="21.574" transform="translate(472.957 255.66)" fill="#2e353a"/>
      <rect id="Rectangle_76" data-name="Rectangle 76" width="32.843" height="21.574" transform="translate(510.975 255.66)" fill="#2e353a"/>
      <rect id="Rectangle_77" data-name="Rectangle 77" width="30.725" height="30.255" transform="translate(490.649 282.41)" fill="#2e353a"/>
      <rect id="Rectangle_78" data-name="Rectangle 78" width="30.725" height="30.255" transform="translate(526.573 282.41)" fill="#2e353a"/>
      <rect id="Rectangle_79" data-name="Rectangle 79" width="45.241" height="30.255" transform="translate(568.874 388.749)" fill="#2e353a"/>
      <rect id="Rectangle_80" data-name="Rectangle 80" width="32.843" height="21.574" transform="translate(549.017 255.66)" fill="#2e353a"/>
      <rect id="Rectangle_81" data-name="Rectangle 81" width="31.361" height="30.255" transform="translate(94.983 282.41)" fill="#2e353a"/>
      <rect id="Rectangle_82" data-name="Rectangle 82" width="32.843" height="21.574" transform="translate(358.854 255.66)" fill="#2e353a"/>
      <rect id="Rectangle_83" data-name="Rectangle 83" width="32.843" height="21.574" transform="translate(396.873 255.66)" fill="#2e353a"/>
      <rect id="Rectangle_84" data-name="Rectangle 84" width="30.725" height="30.255" transform="translate(382.922 282.41)" fill="#2e353a"/>
      <rect id="Rectangle_85" data-name="Rectangle 85" width="30.725" height="30.255" transform="translate(454.747 282.41)" fill="#2e353a"/>
      <rect id="Rectangle_86" data-name="Rectangle 86" width="30.725" height="30.255" transform="translate(346.997 282.41)" fill="#2e353a"/>
      <rect id="Rectangle_87" data-name="Rectangle 87" width="30.725" height="30.255" transform="translate(418.823 282.41)" fill="#2e353a"/>
      <rect id="Rectangle_88" data-name="Rectangle 88" width="32.843" height="21.574" transform="translate(434.915 255.66)" fill="#2e353a"/>
      <rect id="Rectangle_89" data-name="Rectangle 89" width="30.49" height="30.255" transform="translate(390.474 388.749)" fill="#2e353a"/>
      <rect id="Rectangle_90" data-name="Rectangle 90" width="30.49" height="30.255" transform="translate(550.452 353.295)" fill="#2e353a"/>
      <rect id="Rectangle_91" data-name="Rectangle 91" width="30.49" height="30.255" transform="translate(514.763 353.295)" fill="#2e353a"/>
      <rect id="Rectangle_92" data-name="Rectangle 92" width="30.49" height="30.255" transform="translate(533.184 388.749)" fill="#2e353a"/>
      <rect id="Rectangle_93" data-name="Rectangle 93" width="30.49" height="30.255" transform="translate(497.518 388.749)" fill="#2e353a"/>
      <rect id="Rectangle_94" data-name="Rectangle 94" width="30.49" height="30.255" transform="translate(426.139 388.749)" fill="#2e353a"/>
      <rect id="Rectangle_95" data-name="Rectangle 95" width="30.49" height="30.255" transform="translate(461.829 388.749)" fill="#2e353a"/>
      <rect id="Rectangle_96" data-name="Rectangle 96" width="30.49" height="30.255" transform="translate(479.074 353.295)" fill="#2e353a"/>
      <rect id="Rectangle_97" data-name="Rectangle 97" width="30.49" height="30.255" transform="translate(443.408 353.295)" fill="#2e353a"/>
      <rect id="Rectangle_98" data-name="Rectangle 98" width="27.079" height="21.574" transform="translate(587.059 255.66)" fill="#2e353a"/>
      <rect id="Rectangle_99" data-name="Rectangle 99" width="30.49" height="21.574" transform="translate(94.983 255.66)" fill="#2e353a"/>
      <rect id="Rectangle_100" data-name="Rectangle 100" width="519.155" height="31.455" transform="translate(94.983 424.179)" fill="#2e353a"/>
      <rect id="Rectangle_101" data-name="Rectangle 101" width="51.64" height="30.255" transform="translate(562.474 282.41)" fill="#2e353a"/>
      <rect id="Rectangle_102" data-name="Rectangle 102" width="27.996" height="30.255" transform="translate(586.118 353.295)" fill="#2e353a"/>
      <path id="Path_216" data-name="Path 216" d="M628.695,256.56h-5.2V226.54h-30.49v30.02h-5.176V226.54h-30.49v30.02h-5.2V226.54H521.65v30.02h-5.2V226.54h-30.49v30.02h-5.176V226.54h-30.49v30.02h-5.2V226.54h-30.49v30.02h-5.2V226.54h-30.49v30.02H373.74V226.54H343.25v30.02h-5.2V226.54h-30.49v30.02h-5.2V226.54h-30.49v30.02H266.7V226.54h-30.49v30.02h-5.2V226.54h-30.49v30.02h-5.2V226.54H146.17v30.255H665.3V226.54H628.695Z" transform="translate(-51.187 91.324)" fill="#2e353a"/>
      <rect id="Rectangle_103" data-name="Rectangle 103" width="30.49" height="30.255" transform="translate(300.674 353.295)" fill="#2e353a"/>
      <rect id="Rectangle_104" data-name="Rectangle 104" width="30.49" height="30.255" transform="translate(407.718 353.295)" fill="#2e353a"/>
      <rect id="Rectangle_105" data-name="Rectangle 105" width="30.49" height="30.255" transform="translate(229.318 353.295)" fill="#2e353a"/>
      <rect id="Rectangle_106" data-name="Rectangle 106" width="30.49" height="30.255" transform="translate(247.739 388.749)" fill="#2e353a"/>
      <rect id="Rectangle_107" data-name="Rectangle 107" width="30.49" height="30.255" transform="translate(264.984 353.295)" fill="#2e353a"/>
      <rect id="Rectangle_108" data-name="Rectangle 108" width="30.49" height="30.255" transform="translate(193.629 353.295)" fill="#2e353a"/>
      <rect id="Rectangle_109" data-name="Rectangle 109" width="30.49" height="30.255" transform="translate(176.384 388.749)" fill="#2e353a"/>
      <rect id="Rectangle_110" data-name="Rectangle 110" width="30.49" height="30.255" transform="translate(212.05 388.749)" fill="#2e353a"/>
      <rect id="Rectangle_111" data-name="Rectangle 111" width="30.49" height="30.255" transform="translate(336.363 353.295)" fill="#2e353a"/>
      <rect id="Rectangle_112" data-name="Rectangle 112" width="30.49" height="30.255" transform="translate(354.784 388.749)" fill="#2e353a"/>
      <rect id="Rectangle_113" data-name="Rectangle 113" width="30.49" height="30.255" transform="translate(372.029 353.295)" fill="#2e353a"/>
      <rect id="Rectangle_114" data-name="Rectangle 114" width="30.49" height="30.255" transform="translate(283.429 388.749)" fill="#2e353a"/>
      <rect id="Rectangle_115" data-name="Rectangle 115" width="30.49" height="30.255" transform="translate(319.095 388.749)" fill="#2e353a"/>
      <rect id="Rectangle_116" data-name="Rectangle 116" width="30.49" height="30.255" transform="translate(157.939 353.295)" fill="#2e353a"/>
      <path id="Path_217" data-name="Path 217" d="M779.9,91.43H126.672a20.891,20.891,0,0,0-20.162,26.3l47.758,177.812a20.891,20.891,0,0,0,20.162,15.48H241.1v12.3h427.45V311.1h63.521a20.891,20.891,0,0,0,20.162-15.48L800,117.8A20.891,20.891,0,0,0,779.9,91.43Z" transform="translate(-105.797 -91.43)" fill="#2e353a" stroke="#2e353a" stroke-linecap="round" stroke-linejoin="round" stroke-width="1"/>
      <path id="Path_218" data-name="Path 218" d="M680.625,282.7H175.138L124.58,100.77H731.159Z" transform="translate(-80.39 -78.796)" fill="#fff" stroke="#2e353a" stroke-linecap="round" stroke-linejoin="round" stroke-width="1"/>
      <path id="Path_219" data-name="Path 219" d="M165.456,144.16v2.353H156.54V144.16Z" transform="translate(-37.16 -20.106)" fill="#2e353a"/>
      <path id="Path_220" data-name="Path 220" d="M170.19,144.16v2.353h-8.94V144.16Z" transform="translate(-30.789 -20.106)" fill="#2e353a"/>
      <path id="Path_221" data-name="Path 221" d="M174.869,144.16v2.353H166V144.16Z" transform="translate(-24.364 -20.106)" fill="#2e353a"/>
      <path id="Path_222" data-name="Path 222" d="M179.606,144.16v2.353H170.69V144.16Z" transform="translate(-18.02 -20.106)" fill="#2e353a"/>
      <path id="Path_223" data-name="Path 223" d="M184.34,144.16v2.353H175.4V144.16Z" transform="translate(-11.65 -20.106)" fill="#2e353a"/>
      <path id="Path_224" data-name="Path 224" d="M189.06,144.16v2.353h-8.94V144.16Z" transform="translate(-5.265 -20.106)" fill="#2e353a"/>
      <path id="Path_225" data-name="Path 225" d="M193.757,144.16v2.353H184.84V144.16Z" transform="translate(1.119 -20.106)" fill="#2e353a"/>
      <path id="Path_226" data-name="Path 226" d="M198.954,164.5,189.12,138.29h2.353l9.834,26.208Z" transform="translate(6.909 -28.046)" fill="#2e353a"/>
      <path id="Path_227" data-name="Path 227" d="M161.636,127.94v2.353H152.72V127.94Z" transform="translate(-42.327 -42.045)" fill="#2e353a"/>
      <path id="Path_228" data-name="Path 228" d="M166.356,127.94v2.353H157.44V127.94Z" transform="translate(-35.943 -42.045)" fill="#2e353a"/>
      <path id="Path_229" data-name="Path 229" d="M171.14,127.94v2.353H162.2V127.94Z" transform="translate(-29.504 -42.045)" fill="#2e353a"/>
      <path id="Path_230" data-name="Path 230" d="M175.81,127.94v2.353h-8.94V127.94Z" transform="translate(-23.188 -42.045)" fill="#2e353a"/>
      <path id="Path_231" data-name="Path 231" d="M180.506,127.94v2.353H171.59V127.94Z" transform="translate(-16.803 -42.045)" fill="#2e353a"/>
      <path id="Path_232" data-name="Path 232" d="M188.5,127.94v2.353h-8.94V127.94Z" transform="translate(-6.023 -42.045)" fill="#2e353a"/>
      <path id="Path_233" data-name="Path 233" d="M193.2,127.94v2.353H184.28V127.94Z" transform="translate(0.362 -42.045)" fill="#2e353a"/>
      <path id="Path_234" data-name="Path 234" d="M197.916,127.94v2.353H189V127.94Z" transform="translate(6.746 -42.045)" fill="#2e353a"/>
      <path id="Path_235" data-name="Path 235" d="M202.65,127.94v2.353h-8.94V127.94Z" transform="translate(13.117 -42.045)" fill="#2e353a"/>
      <path id="Path_236" data-name="Path 236" d="M207.346,127.94v2.353H198.43V127.94Z" transform="translate(19.502 -42.045)" fill="#2e353a"/>
      <path id="Path_237" data-name="Path 237" d="M212.066,127.94v2.353H203.15V127.94Z" transform="translate(25.886 -42.045)" fill="#2e353a"/>
      <path id="Path_238" data-name="Path 238" d="M216.8,127.94v2.353h-8.94V127.94Z" transform="translate(32.257 -42.045)" fill="#2e353a"/>
      <path id="Path_239" data-name="Path 239" d="M224.757,127.94v2.353H215.84V127.94Z" transform="translate(43.051 -42.045)" fill="#2e353a"/>
      <path id="Path_240" data-name="Path 240" d="M229.49,127.94v2.353h-8.94V127.94Z" transform="translate(49.422 -42.045)" fill="#2e353a"/>
      <path id="Path_241" data-name="Path 241" d="M234.21,127.94v2.353h-8.94V127.94Z" transform="translate(55.806 -42.045)" fill="#2e353a"/>
      <path id="Path_242" data-name="Path 242" d="M242.126,127.94v2.353H233.21V127.94Z" transform="translate(66.546 -42.045)" fill="#2e353a"/>
      <path id="Path_243" data-name="Path 243" d="M246.846,127.94v2.353H238V127.94Z" transform="translate(73.025 -42.045)" fill="#2e353a"/>
      <path id="Path_244" data-name="Path 244" d="M251.62,127.94v2.353h-8.94V127.94Z" transform="translate(79.356 -42.045)" fill="#2e353a"/>
      <path id="Path_245" data-name="Path 245" d="M269.346,127.94v2.353H260.43V127.94Z" transform="translate(103.365 -42.045)" fill="#2e353a"/>
      <path id="Path_246" data-name="Path 246" d="M274.08,127.94v2.353h-8.94V127.94Z" transform="translate(109.736 -42.045)" fill="#2e353a"/>
      <path id="Path_247" data-name="Path 247" d="M278.8,127.94v2.353h-8.94V127.94Z" transform="translate(116.12 -42.045)" fill="#2e353a"/>
      <path id="Path_248" data-name="Path 248" d="M283.5,127.94v2.353H274.58V127.94Z" transform="translate(122.504 -42.045)" fill="#2e353a"/>
      <path id="Path_249" data-name="Path 249" d="M288.23,127.94v2.353h-8.94V127.94Z" transform="translate(128.875 -42.045)" fill="#2e353a"/>
      <path id="Path_250" data-name="Path 250" d="M296.187,127.94v2.353H287.27V127.94Z" transform="translate(139.669 -42.045)" fill="#2e353a"/>
      <path id="Path_251" data-name="Path 251" d="M300.893,127.94v2.353H292V127.94Z" transform="translate(146.067 -42.045)" fill="#2e353a"/>
      <path id="Path_252" data-name="Path 252" d="M305.64,127.94v2.353H296.7V127.94Z" transform="translate(152.425 -42.045)" fill="#2e353a"/>
      <path id="Path_253" data-name="Path 253" d="M313.6,127.94v2.353H304.68V127.94Z" transform="translate(163.219 -42.045)" fill="#2e353a"/>
      <path id="Path_254" data-name="Path 254" d="M321.59,127.94v2.353h-8.94V127.94Z" transform="translate(173.999 -42.045)" fill="#2e353a"/>
    </g>
    <g id="freepik--Notebook--inject-1--inject-86" transform="translate(831.427 475.787)">
      <path id="Path_255" data-name="Path 255" d="M394.163,292.29,368.99,389.407l23.809,6.987Z" transform="translate(-368.99 -162.59)" fill="#fff" stroke="#2e353a" stroke-linecap="round" stroke-linejoin="round" stroke-width="1"/>
      <path id="Path_256" data-name="Path 256" d="M386.362,264.215a20.115,20.115,0,0,1-2.894-14.774c1.294-9.575,12.845-11.763,12.845-11.763s2.517-1.906,11.763,1.6,80.742,13.2,126.43,19.386,60.486,2.188,59.851,17.88-40.724,156.521-41.336,160.943S386.362,264.215,386.362,264.215Z" transform="translate(-349.897 -237.16)" fill="#fff" stroke="#2e353a" stroke-miterlimit="10" stroke-width="1"/>
      <rect id="Rectangle_117" data-name="Rectangle 117" width="193.951" height="231.193" transform="matrix(0.991, 0.134, -0.134, 0.991, 36.451, 27.059)" fill="#fff" stroke="#2e353a" stroke-linecap="round" stroke-linejoin="round" stroke-width="1"/>
      <line id="Line_70" data-name="Line 70" x2="11.175" y2="1.529" transform="translate(192.916 98.81)" fill="none" stroke="#2e353a" stroke-linecap="round" stroke-linejoin="round" stroke-width="0.5"/>
      <line id="Line_71" data-name="Line 71" x2="61.145" y2="8.305" transform="translate(122.925 89.329)" fill="none" stroke="#2e353a" stroke-linecap="round" stroke-linejoin="round" stroke-width="0.5"/>
      <line id="Line_72" data-name="Line 72" x2="65.262" y2="8.846" transform="translate(48.817 79.283)" fill="none" stroke="#2e353a" stroke-linecap="round" stroke-linejoin="round" stroke-width="0.5"/>
      <line id="Line_73" data-name="Line 73" x2="25.926" y2="3.529" transform="translate(175.412 117.184)" fill="none" stroke="#2e353a" stroke-linecap="round" stroke-linejoin="round" stroke-width="0.5"/>
      <line id="Line_74" data-name="Line 74" x2="102.834" y2="13.928" transform="translate(46.065 99.657)" fill="none" stroke="#2e353a" stroke-linecap="round" stroke-linejoin="round" stroke-width="0.5"/>
      <line id="Line_75" data-name="Line 75" x2="100.34" y2="13.598" transform="translate(98.246 127.465)" fill="none" stroke="#2e353a" stroke-linecap="round" stroke-linejoin="round" stroke-width="0.5"/>
      <line id="Line_76" data-name="Line 76" x2="44.629" y2="6.07" transform="translate(43.288 120.007)" fill="none" stroke="#2e353a" stroke-linecap="round" stroke-linejoin="round" stroke-width="0.5"/>
      <line id="Line_77" data-name="Line 77" x2="64.227" y2="8.705" transform="translate(131.583 152.732)" fill="none" stroke="#2e353a" stroke-linecap="round" stroke-linejoin="round" stroke-width="0.5"/>
      <line id="Line_78" data-name="Line 78" x2="47.147" y2="6.399" transform="translate(77.072 145.322)" fill="none" stroke="#2e353a" stroke-linecap="round" stroke-linejoin="round" stroke-width="0.5"/>
      <line id="Line_79" data-name="Line 79" x2="28.42" y2="3.858" transform="translate(40.536 140.381)" fill="none" stroke="#2e353a" stroke-linecap="round" stroke-linejoin="round" stroke-width="0.5"/>
      <line id="Line_80" data-name="Line 80" x2="22.985" y2="3.105" transform="translate(170.072 178.682)" fill="none" stroke="#2e353a" stroke-linecap="round" stroke-linejoin="round" stroke-width="0.5"/>
      <line id="Line_81" data-name="Line 81" x2="116.832" y2="15.833" transform="translate(37.783 160.755)" fill="none" stroke="#2e353a" stroke-linecap="round" stroke-linejoin="round" stroke-width="0.5"/>
      <line id="Line_82" data-name="Line 82" x2="64.98" y2="8.822" transform="translate(125.325 193.339)" fill="none" stroke="#2e353a" stroke-linecap="round" stroke-linejoin="round" stroke-width="0.5"/>
      <line id="Line_83" data-name="Line 83" x2="79.26" y2="10.752" transform="translate(35.007 181.105)" fill="none" stroke="#2e353a" stroke-linecap="round" stroke-linejoin="round" stroke-width="0.5"/>
      <line id="Line_84" data-name="Line 84" x2="42.136" y2="5.693" transform="translate(145.393 216.818)" fill="none" stroke="#2e353a" stroke-linecap="round" stroke-linejoin="round" stroke-width="0.5"/>
      <line id="Line_85" data-name="Line 85" x2="75.143" y2="10.187" transform="translate(59.945 205.22)" fill="none" stroke="#2e353a" stroke-linecap="round" stroke-linejoin="round" stroke-width="0.5"/>
      <line id="Line_86" data-name="Line 86" x2="18.845" y2="2.541" transform="translate(32.255 201.479)" fill="none" stroke="#2e353a" stroke-linecap="round" stroke-linejoin="round" stroke-width="0.5"/>
      <path id="Path_257" data-name="Path 257" d="M466.18,272.474s3.294-31.949,15.057-19.1" transform="translate(-237.528 -219.352)" fill="none" stroke="#2e353a" stroke-linecap="round" stroke-linejoin="round" stroke-width="1"/>
      <path id="Path_258" data-name="Path 258" d="M472.715,456.207l-.212,20.3-11.834-16.7L413.17,300.04l12.045-3.6Z" transform="translate(-309.231 -156.977)" fill="#fff" stroke="#2e353a" stroke-linecap="round" stroke-linejoin="round" stroke-width="1"/>
      <rect id="Rectangle_118" data-name="Rectangle 118" width="6.846" height="166.684" transform="translate(104.698 148.208) rotate(-16.26)" fill="#fff" stroke="#2e353a" stroke-linecap="round" stroke-linejoin="round" stroke-width="0.5"/>
      <path id="Path_259" data-name="Path 259" d="M445.392,364.37l-12.022,3.576,11.81,16.68Z" transform="translate(-281.908 -65.092)" fill="none" stroke="#2e353a" stroke-linecap="round" stroke-linejoin="round" stroke-width="1"/>
      <path id="Path_260" data-name="Path 260" d="M435.88,370.458l5.905,8.352.118-10.14Z" transform="translate(-278.513 -59.276)" fill="#2e353a" stroke="#2e353a" stroke-linecap="round" stroke-linejoin="round" stroke-width="1"/>
      <path id="Path_261" data-name="Path 261" d="M416.052,289.747h0a6.305,6.305,0,0,0-4.235,7.811l3.529,11.881,12.045-3.576-3.529-11.881A6.305,6.305,0,0,0,416.052,289.747Z" transform="translate(-311.407 -166.376)" fill="#fff" stroke="#2e353a" stroke-linecap="round" stroke-linejoin="round" stroke-width="1"/>
      <path id="Path_262" data-name="Path 262" d="M416.052,289.747h0a6.305,6.305,0,0,0-4.235,7.811l1.694,5.67,12.022-3.576-1.67-5.67A6.305,6.305,0,0,0,416.052,289.747Z" transform="translate(-311.407 -166.376)" fill="#2e353a" stroke="#2e353a" stroke-linecap="round" stroke-linejoin="round" stroke-width="1"/>
    </g>
    <g id="freepik--Character--inject-1--inject-86" transform="translate(221.154 463.106)">
      <path id="Path_263" data-name="Path 263" d="M164.22,249.49c-1.506,2.117-2.988,4.329-4.47,6.658" transform="translate(-41.742 -207.801)" fill="none" stroke="#fff" stroke-linecap="round" stroke-linejoin="round" stroke-width="1"/>
      <path id="Path_264" data-name="Path 264" d="M182.539,237.45A169.8,169.8,0,0,0,164.4,257.142" transform="translate(-35.452 -224.087)" fill="none" stroke="#fff" stroke-linecap="round" stroke-linejoin="round" stroke-width="1"/>
      <path id="Path_265" data-name="Path 265" d="M170.783,242.76a250.861,250.861,0,0,0-17.433,28.232" transform="translate(-50.399 -216.905)" fill="none" stroke="#fff" stroke-linecap="round" stroke-linejoin="round" stroke-width="1"/>
      <path id="Path_266" data-name="Path 266" d="M233.86,264.75c-1.482,2.117-2.988,4.329-4.47,6.634" transform="translate(52.455 -187.16)" fill="none" stroke="#fff" stroke-linecap="round" stroke-linejoin="round" stroke-width="1"/>
      <path id="Path_267" data-name="Path 267" d="M252.165,252.71A171.059,171.059,0,0,0,234.05,272.4" transform="translate(58.758 -203.446)" fill="none" stroke="#fff" stroke-linecap="round" stroke-linejoin="round" stroke-width="1"/>
      <path id="Path_268" data-name="Path 268" d="M240.433,258A254.578,254.578,0,0,0,223,286.373" transform="translate(43.812 -196.29)" fill="none" stroke="#fff" stroke-linecap="round" stroke-linejoin="round" stroke-width="1"/>
      <path id="Path_269" data-name="Path 269" d="M334.979,242.516c-2.141-1.459-4.4-2.917-6.728-4.376" transform="translate(186.176 -223.154)" fill="none" stroke="#fff" stroke-linecap="round" stroke-linejoin="round" stroke-width="1"/>
      <path id="Path_270" data-name="Path 270" d="M354.794,260.52a172.709,172.709,0,0,0-19.974-17.81" transform="translate(195.063 -216.972)" fill="none" stroke="#fff" stroke-linecap="round" stroke-linejoin="round" stroke-width="1"/>
      <path id="Path_271" data-name="Path 271" d="M354.278,248.78a254.894,254.894,0,0,0-28.608-17.01" transform="translate(182.687 -231.77)" fill="none" stroke="#fff" stroke-linecap="round" stroke-linejoin="round" stroke-width="1"/>
      <path id="Path_272" data-name="Path 272" d="M231.064,302c-1.223,8.846-3.058,21.174-4.893,28.49" transform="translate(48.1 -136.775)" fill="none" stroke="#2e353a" stroke-linecap="round" stroke-linejoin="round" stroke-width="1"/>
      <path id="Path_273" data-name="Path 273" d="M229.141,297.43s-.188,1.67-.541,4.376" transform="translate(51.387 -142.956)" fill="none" stroke="#2e353a" stroke-linecap="round" stroke-linejoin="round" stroke-width="1"/>
      <path id="Path_274" data-name="Path 274" d="M236.911,308.1a198.913,198.913,0,0,1-9.41,25.1" transform="translate(49.899 -128.524)" fill="none" stroke="#2e353a" stroke-linecap="round" stroke-linejoin="round" stroke-width="1"/>
      <path id="Path_275" data-name="Path 275" d="M281.5,313.43s1.576,20.4,12.539,31.384" transform="translate(122.941 -121.314)" fill="none" stroke="#2e353a" stroke-linecap="round" stroke-linejoin="round" stroke-width="1"/>
      <path id="Path_276" data-name="Path 276" d="M280.83,322.1s4.705,14.116,14.116,20.4" transform="translate(122.035 -109.587)" fill="none" stroke="#2e353a" stroke-linecap="round" stroke-linejoin="round" stroke-width="1"/>
      <path id="Path_277" data-name="Path 277" d="M145,538.844s10.446-8.4,10.446-80.6,12.022-124.948,26.844-148.075,28.679-32.4,35.172-32.4,1.835,8.328-7.411,20.35-17.574,18.515-21.291,33.337-3.694,33.313.941,31.455,12.022-38.865,18.492-52.746,22.232-31.478,31.478-39.807,29.62-33.313,38.865-26.844,3.717,15.739-1.835,19.433-27.785,25.879-37.948,39.807-16.657,49.052-11.1,49.97,22.209-50.887,31.455-61.992,46.276-41.665,54.6-42.583,9.269,12.022,1.859,18.515-32.4,34.231-40.724,50.887-12.045,47.217-4.705,39.807,19.433-37.948,29.62-48.135,40.724-42.559,48.135-38.865,5.552,12.963-.918,19.433S315.5,331.46,309.025,349.951s-13.9,70.344-10.187,62.956,15.739-45.359,22.209-61.168S340.48,328.613,342.339,336s-1.859,11.1-6.493,27.785-4.705,61.168-18.492,86.059S248.233,528,240.846,546.49a252.019,252.019,0,0,1-19.1,36.7" transform="translate(-61.693 -217.31)" fill="#fff"/>
      <path id="Path_278" data-name="Path 278" d="M483.108,545.1s-10.7-14.657-10.7-86.859S460.358,333.295,445.56,310.168s-28.7-32.4-35.172-32.4-1.859,8.328,7.411,20.35,17.574,18.515,21.174,33.337,3.717,33.313-.918,31.455-12.022-38.865-18.515-52.746-22.209-31.478-31.455-39.807-29.62-33.313-38.889-26.844-3.694,15.739,1.859,19.433S378.816,288.83,389,302.757s16.657,49.052,11.1,49.97-22.138-50.887-31.384-61.945-46.3-41.665-54.628-42.583-9.246,12.022-1.835,18.515,32.4,34.231,40.724,50.887,12.022,47.217,4.705,39.807-19.433-37.948-29.6-48.135-40.724-42.559-48.135-38.865-5.552,12.963.918,19.433S312.354,331.507,318.824,350s13.88,70.344,10.187,62.956S313.272,367.6,306.8,351.786s-19.433-23.126-21.291-15.739,1.859,11.1,6.47,27.785S296.686,425,310.5,449.891s67.568,73.473,74.978,91.988,20.821,47.688,20.821,47.688" transform="translate(114.366 -217.31)" fill="#fff"/>
      <path id="Path_279" data-name="Path 279" d="M143.5,567.694s13.881-45.335,13.881-117.632S169.4,325.115,184.224,301.988s28.679-32.4,35.172-32.4,1.835,8.328-7.411,20.35-17.574,18.515-21.291,33.313-3.694,33.337.941,31.478,12.022-38.865,18.492-52.746,22.232-31.478,31.478-39.807,29.62-33.313,38.865-26.844,3.717,15.739-1.835,19.433-27.785,25.879-37.948,39.807-16.657,49.052-11.1,49.97,22.209-50.887,31.455-62.015,46.276-41.642,54.6-42.559,9.269,12.022,1.859,18.515-32.4,34.231-40.724,50.887-12.045,47.217-4.705,39.807,19.433-37.948,29.62-48.135,40.724-42.559,48.135-38.865,5.552,12.963-.918,19.433-31.478,41.642-37.948,60.157-13.9,70.344-10.187,62.933,15.739-45.335,22.209-61.168,19.433-23.15,21.291-15.739-1.859,11.1-6.493,27.761-4.705,61.168-18.492,86.083-67.568,92.553-74.978,111.068-24.067,59.239-24.067,59.239" transform="translate(-63.722 -228.374)" fill="#fff" stroke="#2e353a" stroke-linecap="round" stroke-linejoin="round" stroke-width="1"/>
      <path id="Path_280" data-name="Path 280" d="M486.315,567.694s-13.881-45.335-13.881-117.632-12.045-124.948-26.844-148.075-28.7-32.4-35.172-32.4-1.859,8.328,7.411,20.35S435.4,308.458,439,323.256s3.717,33.337-.918,31.478-12.022-38.865-18.515-52.746-22.209-31.478-31.455-39.807-29.62-33.313-38.889-26.844-3.694,15.739,1.859,19.433,27.761,25.879,37.948,39.807,16.657,49.052,11.1,49.97-22.209-50.887-31.455-62.015-46.3-41.642-54.628-42.559-9.246,12.022-1.835,18.515,32.4,34.231,40.724,50.887,12.022,47.217,4.705,39.807-19.433-37.948-29.6-48.135-40.724-42.559-48.135-38.865-5.552,12.963.918,19.433,31.478,41.642,37.948,60.157,13.88,70.344,10.187,62.933-15.739-45.335-22.209-61.168-19.433-23.15-21.291-15.739,1.859,11.1,6.47,27.761,4.705,61.168,18.515,86.083,67.568,92.553,74.978,111.068S409.5,611.947,409.5,611.947" transform="translate(114.312 -228.374)" fill="#fff" stroke="#2e353a" stroke-linecap="round" stroke-linejoin="round" stroke-width="1"/>
      <path id="Path_281" data-name="Path 281" d="M118.6,528.364H259.758c1.835-7.058,4.141-14.963,7.058-23.526,11.1-33.266,47.053-74.861,47.053-74.861a243.309,243.309,0,0,0-88.835-49.829c-54.111-16.656-93.729-11.763-93.729-11.763a217.783,217.783,0,0,1,2.353,91.753C126.6,494.392,121.894,516.06,118.6,528.364Z" transform="translate(-97.403 -47.886)" fill="#2e353a" stroke="#2e353a" stroke-linecap="round" stroke-linejoin="round" stroke-width="1"/>
      <path id="Path_282" data-name="Path 282" d="M361.5,522.566H508.161c-4.705-12.187-14.869-38.654-25.032-65.121-13.88-36.042-8.328-84.554-13.88-84.554s-67.92-4.164-98.411,5.529-65.168,37.43-65.168,37.43a306.476,306.476,0,0,1,40.207,59.663A206.35,206.35,0,0,1,361.5,522.566Z" transform="translate(155.634 -42.088)" fill="#2e353a" stroke="#2e353a" stroke-linecap="round" stroke-linejoin="round" stroke-width="1"/>
      <path id="Path_283" data-name="Path 283" d="M218.964,389.993c-1.012-4-16.068,2.023-16.068,2.023s5.035-19.056-2.988-19.056-9.034,14.116-9.034,14.116-15.057-6-15.057,3.011,10.022,8.846,10.022,8.846-12.045,15.057-3.011,18.045,15.033-8.023,15.033-8.023,6.023,10.046,14.116,6.023,2-13.034,2-13.034S219.952,394.016,218.964,389.993ZM198.9,405.05a4.117,4.117,0,1,1,5.011-4.023A4.705,4.705,0,0,1,198.9,405.05Zm42.136,97.4c-1.012-4-16.068,2.023-16.068,2.023s5.035-19.056-3.011-19.056-9.011,14.116-9.011,14.116-15.057-6.023-15.057,2.988,10.046,9.034,10.046,9.034-12.045,15.057-3.011,18.068,15.033-8.046,15.033-8.046,6.023,10.046,14.116,6.023,2-13.034,2-13.034S242.02,506.354,241.032,502.449Zm-20.068,15.057a4.117,4.117,0,1,1,5.011-4.023,4.588,4.588,0,0,1-5.011,3.905Zm-68.226,0c-1.012-4.023-16.045,2-16.045,2s5.011-19.056-3.011-19.056-9.034,14.116-9.034,14.116-15.057-6.023-15.057,3.011,10.046,9.034,10.046,9.034-12.045,15.033-3.011,18.045,15.033-8.023,15.033-8.023,6.023,10.022,14.116,6.023,2.023-13.034,2.023-13.034,5.952-8.234,4.964-12.234Zm-20.068,15.033a4.117,4.117,0,1,1,5.011-4,4.588,4.588,0,0,1-4.988,3.882Zm129.395-93.282H273.1c8.022,0,13.034,9.034,13.034,9.034-17.033,4.893-24.044-9.152-24.044-9.152ZM251.03,517.506h11.034c8.022,0,13.034,9.034,13.034,9.034-17.033,4.893-24.044-9.152-24.044-9.152Zm-96.27-15.057h11.034c8.022,0,13.034,9.034,13.034,9.034C161.771,516.377,154.76,502.449,154.76,502.449Zm53.334-70.791,6.446,8.964c4.705,6.54.259,15.857.259,15.857-14.022-11.034-6.7-24.938-6.7-24.938ZM152.9,461.631l5.035-9.811c3.694-7.058,14-7.481,14-7.481C168.476,461.8,152.9,461.631,152.9,461.631Z" transform="translate(-109.59 -40.792)" fill="#fff"/>
      <path id="Path_284" data-name="Path 284" d="M400.147,398.093c-1.012-4-16.068,2.023-16.068,2.023s5.035-19.056-2.988-19.056-9.034,14.116-9.034,14.116-15.057-6-15.057,3.011,10.046,9.034,10.046,9.034S355,422.278,364.034,425.289s15.033-8.046,15.033-8.046,6.023,10.046,14.116,6.023,2-13.034,2-13.034S401.135,402.093,400.147,398.093ZM380.079,413.15a4.117,4.117,0,1,1,5.011-4.023,4.588,4.588,0,0,1-5.011,4.023Zm67.191,63.192c-.988-4.023-16.045,2-16.045,2s5.011-19.056-3.011-19.056S419.2,473.4,419.2,473.4s-15.057-6.023-15.057,3.011,10.022,9.034,10.022,9.034-12.022,15.033-2.988,18.045,15.033-8.022,15.033-8.022,6.023,10.022,14.116,6.023,2-13.034,2-13.034S448.282,480.341,447.27,476.342Zm-20.044,15.151a4.117,4.117,0,1,1,5.011-4A4.588,4.588,0,0,1,427.226,491.493Zm-30.09,15.057c-1.012-4.023-16.045,2-16.045,2s5.011-19.056-3.011-19.056-9.034,14.116-9.034,14.116-15.057-6.023-15.057,3.011,10.046,9.034,10.046,9.034-12.045,15.033-3.011,18.045,15.033-8.023,15.033-8.023,6.023,10.022,14.116,6.023,2.023-13.034,2.023-13.034,5.858-8.234,4.941-12.234Zm-20.068,15.033a4.117,4.117,0,1,1,5.011-4,4.588,4.588,0,0,1-5.011,3.882Zm66.2-74.225H454.3c8.022,0,13.034,9.034,13.034,9.034-17.057,4.893-24.067-9.152-24.067-9.152ZM324.91,504.432h11.034c8.023,0,13.034,9.011,13.034,9.011C331.921,518.477,324.91,504.432,324.91,504.432Zm64.368-64.7,6.446,8.964c4.705,6.54.259,15.857.259,15.857C381.961,453.545,389.278,439.735,389.278,439.735Zm65.239,56.087,6.423,8.964c4.705,6.517.259,15.857.259,15.857C447.176,509.7,454.517,495.821,454.517,495.821ZM333.991,469.731l5.035-9.811c3.694-7.058,14.116-7.481,14.116-7.481-3.482,17.457-19.174,17.292-19.174,17.292Z" transform="translate(181.659 -29.836)" fill="#fff"/>
    </g>
  </g>
</svg>
